<?xml version="1.0" standalone="no"?>
<!DOCTYPE svg PUBLIC "-//W3C//DTD SVG 20010904//EN"
 "http://www.w3.org/TR/2001/REC-SVG-20010904/DTD/svg10.dtd">
<svg version="1.0" xmlns="http://www.w3.org/2000/svg"
 width="900.000000pt" height="300.000000pt" viewBox="0 0 900.000000 300.000000"
 preserveAspectRatio="xMidYMid meet">

<g transform="translate(0.000000,300.000000) scale(0.100000,-0.100000)"
fill="#D63157" stroke="none">
<path d="M8360 2730 l0 -180 -2997 -2 -2998 -3 -3 -67 -3 -68 3000 0 3001 0 2
-183 3 -184 315 213 c173 117 316 217 318 222 2 8 -618 432 -632 432 -3 0 -6
-81 -6 -180z" fill="#FFFFFF"/>
<path d="M65 2804 c-25 -25 -16 -135 21 -244 63 -189 227 -479 365 -647 l59
-71 -15 -42 c-18 -52 -18 -83 0 -134 l14 -39 -50 -56 c-125 -140 -311 -466
-374 -656 -31 -94 -43 -201 -26 -233 70 -131 466 371 606 769 26 74 27 75 71
87 26 7 62 28 87 51 l42 39 75 -16 c100 -21 588 -24 700 -3 118 21 225 59 256
92 26 27 26 29 10 54 -35 54 -174 96 -381 116 -144 14 -452 6 -574 -15 l-85
-15 -41 38 c-23 21 -60 43 -86 50 -45 12 -46 14 -67 80 -12 38 -56 135 -96
217 -183 366 -436 653 -511 578z"/>
<path d="M5853 1720 c-132 -28 -203 -122 -203 -270 0 -188 115 -292 307 -277
130 10 210 74 228 185 l7 42 -80 0 -80 0 -7 -30 c-15 -67 -107 -93 -162 -46
-25 22 -28 31 -31 105 -5 96 8 135 51 157 56 29 137 -11 137 -67 0 -17 9 -19
85 -19 l86 0 -7 38 c-15 83 -67 145 -142 170 -48 16 -141 22 -189 12z" fill="#FFFFFF"/>
<path d="M6457 1717 c-77 -18 -135 -60 -166 -122 -23 -43 -26 -62 -26 -150 0
-83 4 -107 22 -140 49 -92 126 -130 263 -130 141 1 217 42 263 145 25 54 29
184 8 244 -43 122 -202 189 -364 153z m138 -131 c50 -21 68 -63 63 -154 -3
-69 -6 -76 -36 -103 -39 -35 -91 -39 -139 -9 -37 22 -48 51 -48 130 0 72 20
119 59 136 40 17 59 17 101 0z" fill="#FFFFFF"/>
<path d="M7382 1720 c-110 -23 -166 -86 -159 -178 3 -43 10 -59 38 -88 34 -35
105 -63 196 -79 57 -9 92 -37 75 -58 -32 -38 -129 -28 -150 16 -13 26 -16 27
-94 27 l-80 0 7 -37 c12 -66 33 -93 93 -121 50 -23 70 -27 157 -27 87 0 106 3
149 25 68 34 89 66 94 144 4 59 2 65 -27 98 -34 39 -56 50 -151 73 -112 28
-130 35 -130 55 0 41 85 55 120 20 11 -11 20 -24 20 -30 0 -6 33 -10 80 -10
92 0 94 4 59 76 -16 34 -32 49 -72 68 -59 29 -158 40 -225 26z" fill="#FFFFFF"/>
<path d="M8552 1720 c-110 -23 -166 -86 -159 -178 3 -43 10 -59 38 -88 34 -35
105 -63 196 -79 57 -9 92 -37 75 -58 -32 -38 -129 -28 -150 16 -13 26 -16 27
-94 27 l-80 0 7 -37 c12 -66 33 -93 93 -121 50 -23 70 -27 157 -27 87 0 106 3
149 25 68 34 89 66 94 144 4 59 2 65 -27 98 -34 39 -56 50 -151 73 -112 28
-130 35 -130 55 0 41 85 55 120 20 11 -11 20 -24 20 -30 0 -6 33 -10 80 -10
92 0 94 4 59 76 -16 34 -32 49 -72 68 -59 29 -158 40 -225 26z" fill="#FFFFFF"/>
<path d="M2500 1450 l0 -270 82 0 81 0 -6 160 c-4 88 -5 160 -3 160 2 0 23
-72 46 -160 l43 -160 68 0 68 0 15 53 c8 28 30 107 48 175 l33 123 -3 -176 -4
-175 86 0 86 0 0 270 0 271 -117 -3 -118 -3 -40 -152 c-21 -84 -41 -151 -43
-149 -1 2 -16 55 -33 117 -16 63 -34 131 -40 152 l-10 37 -119 0 -120 0 0
-270z" fill="#FFFFFF"/>
<path d="M3385 1708 c-3 -7 -47 -129 -99 -270 l-94 -258 89 0 88 0 12 40 12
40 93 0 93 0 12 -40 12 -40 89 0 c48 0 88 4 88 8 0 5 -43 125 -95 267 -52 142
-95 260 -95 262 0 2 -45 3 -100 3 -71 0 -102 -4 -105 -12z m130 -231 c14 -46
25 -86 25 -90 0 -4 -25 -7 -56 -7 -41 0 -55 3 -51 13 2 6 14 47 27 90 13 42
24 77 26 77 2 0 15 -37 29 -83z" fill="#FFFFFF"/>
<path d="M3850 1450 l0 -270 80 0 79 0 3 127 3 127 109 -127 110 -127 78 0 78
0 -2 268 -3 267 -77 3 -77 3 -3 -133 -3 -133 -113 133 -113 132 -75 0 -74 0 0
-270z" fill="#FFFFFF"/>
<path d="M4500 1451 l0 -271 148 0 c174 0 234 13 292 66 52 47 75 110 75 204
-1 96 -24 159 -76 203 -57 50 -96 59 -276 64 l-163 5 0 -271z m284 125 c45
-19 59 -58 54 -147 -3 -63 -7 -74 -31 -95 -22 -18 -40 -24 -78 -24 l-49 0 0
140 0 140 35 0 c20 0 50 -6 69 -14z" fill="#FFFFFF"/>
<path d="M5110 1450 l0 -270 235 0 235 0 0 65 0 65 -150 0 -150 0 0 40 0 40
125 0 125 0 0 60 0 59 -122 3 -123 3 -3 38 -3 37 145 0 146 0 0 65 0 65 -230
0 -230 0 0 -270z" fill="#FFFFFF"/>
<path d="M6940 1450 l0 -270 85 0 85 0 0 270 0 270 -85 0 -85 0 0 -270z" fill="#FFFFFF"/>
<path d="M7851 1463 c-51 -142 -96 -264 -98 -270 -4 -10 17 -13 84 -13 l89 0
10 38 9 37 94 0 94 0 12 -35 12 -35 91 -3 92 -3 -37 103 c-21 57 -64 177 -98
268 l-60 165 -100 3 -100 3 -94 -258z m223 0 l24 -83 -54 0 c-37 0 -54 4 -54
13 0 11 34 125 46 157 7 18 7 18 38 -87z" fill="#FFFFFF"/>
<path d="M805 1431 c-13 -6 -31 -35 -49 -82 -36 -95 -134 -281 -202 -387 l-55
-84 -9 -276 c-5 -152 -12 -321 -14 -375 l-4 -97 204 0 c157 0 204 3 204 13 0
6 -9 266 -20 577 -11 311 -20 600 -20 643 0 42 -3 77 -7 76 -5 0 -17 -4 -28
-8z" />
<path d="M2680 744 c-173 -118 -315 -218 -315 -224 0 -8 617 -430 629 -430 3
0 6 81 6 180 l0 180 2998 2 2997 3 3 68 3 67 -3000 0 -3001 0 -2 184 -3 183
-315 -213z" fill="#FFFFFF"/>
</g>
</svg>
