<?xml version="1.0" standalone="no"?>
<!DOCTYPE svg PUBLIC "-//W3C//DTD SVG 20010904//EN"
 "http://www.w3.org/TR/2001/REC-SVG-20010904/DTD/svg10.dtd">
<svg version="1.0" xmlns="http://www.w3.org/2000/svg"
 width="300.000000pt" height="300.000000pt" viewBox="0 0 300.000000 300.000000"
 preserveAspectRatio="xMidYMid meet">
<metadata>
Created by potrace 1.11, written by Peter Selinger 2001-2013
</metadata>
<g transform="translate(0.000000,300.000000) scale(0.100000,-0.100000)"
fill="#000000" stroke="none">
<path d="M516 2947 c-44 -32 -22 -191 50 -365 93 -226 271 -517 412 -670 26
-30 25 -23 7 -58 -18 -35 -19 -128 -1 -169 12 -29 11 -32 -39 -90 -73 -86
-205 -272 -205 -289 0 -2 -16 -30 -36 -62 -55 -92 -131 -256 -169 -369 -62
-182 -57 -285 14 -285 37 0 130 68 193 141 25 30 58 68 73 84 95 109 273 420
340 595 20 52 40 104 45 115 4 13 18 21 35 23 36 3 108 44 133 77 l19 25 79
-16 c121 -24 193 -29 404 -29 221 0 302 7 463 40 93 19 194 67 209 100 38 83
-161 160 -472 182 -205 15 -411 7 -585 -23 -96 -16 -99 -16 -115 2 -32 38 -61
57 -111 74 l-51 18 -38 98 c-171 450 -543 932 -654 851z"/>
<path d="M1320 1435 c-18 -9 -31 -30 -43 -67 -24 -75 -141 -303 -223 -433 -41
-66 -69 -122 -70 -140 -1 -16 -5 -129 -9 -250 -4 -121 -8 -256 -10 -300 -5
-132 -7 -199 -6 -217 1 -15 22 -17 227 -16 l225 0 -5 132 c-3 72 -8 203 -11
291 -10 325 -15 454 -20 620 -3 94 -8 219 -10 280 -1 60 -7 110 -12 112 -4 1
-19 -4 -33 -12z"/>
</g>
</svg>
